<?xml version="1.0" encoding="UTF-8"?>
<svg width="81px" height="27px" viewBox="0 0 90 30" version="1.1" xmlns="http://www.w3.org/2000/svg" xmlns:xlink="http://www.w3.org/1999/xlink">
    <title>Siftery Logo</title>
    <g id="1.-Branding-Guide" stroke="none" stroke-width="1" fill="none" fill-rule="evenodd">
        <g transform="translate(-20.000000, -7.000000)" id="Header-Loggedin">
            <g>
                <g id="Siftery-Logo" transform="translate(20.000000, 7.000000)">
                    <g id="Group-5">
                        <g id="SVG-Text" transform="translate(37.000000, 7.000000)" fill="#FFFFFF">
                            <path d="M52.7152631,4.2097049 L49.6879093,14.4548682 C49.412967,15.358432 49.0013007,16.0057726 48.4521632,16.3976435 C47.9022786,16.7887608 47.197739,16.9846963 46.3377972,16.9846963 C45.8484298,16.9846963 45.3762463,16.936466 44.9227409,16.8400055 C44.9227409,16.8400055 44.8136605,16.4963649 44.8502697,15.9078049 C44.8861317,15.319245 45.1020511,14.9070269 45.1020511,14.9070269 C45.3172233,14.9793723 45.5495795,15.015545 45.8006137,15.015545 C46.146533,15.015545 46.4603258,14.9454604 46.7412451,14.807552 C46.8510726,14.7532929 46.948199,14.6817011 47.0318771,14.5942838 L46.6680268,13.3711944 L45.7909011,10.4253803 L43.955213,4.2097049 C43.955213,4.2097049 44.0635462,4.08083966 45.2305567,4.08083966 C46.3975673,4.08083966 46.5709004,4.2097049 46.5709004,4.2097049 L48.4342322,11.1669206 L50.0995757,4.2097049 C50.0995757,4.2097049 50.2355526,4.08083966 51.3950918,4.08083966 C52.5553782,4.08083966 52.7152631,4.2097049 52.7152631,4.2097049" id="Y"></path>
                            <path d="M37.7569078,4.21006663 C37.7569078,4.21006663 38.0812351,4.08120139 38.7877173,4.08120139 C39.4942742,4.08120139 39.7633142,4.21006663 39.7633142,4.21006663 L40.2111414,5.42064628 C40.4618768,5.05937145 40.7185893,4.78234887 40.9813534,4.58950317 C41.2439681,4.39695891 41.5036691,4.26146201 41.7606803,4.18301247 C42.0173181,4.10478901 42.265065,4.07170606 42.5040705,4.08353755 C42.7427772,4.09567047 42.9636276,4.12596511 43.1668458,4.17396929 C43.1668458,4.17396929 43.2628515,4.72597974 43.1988975,5.3568919 C43.1349436,5.98780405 42.969754,6.45058851 42.969754,6.45058851 C42.6590991,6.41449117 42.3814672,6.40265968 42.1368582,6.41449117 C41.8919503,6.4266241 41.6649735,6.45970704 41.4561519,6.51381537 C41.2470313,6.56807442 41.0558418,6.63748079 40.8828822,6.72165767 C40.7096237,6.80606063 40.5335262,6.89634166 40.3544401,6.99272683 L40.3544401,13.3710286 C40.3544401,13.3710286 40.2284,13.5207685 39.0560102,13.5207685 C37.8836204,13.5207685 37.7569078,13.3710286 37.7569078,13.3710286 L37.7569078,4.21006663 Z" id="R"></path>
                            <path d="M33.099191,7.91418111 C33.1229496,7.21567123 33.0155129,6.71264464 32.7767315,6.40540278 C32.5376513,6.09823628 32.2272952,5.94465303 31.8452151,5.94465303 C31.3912614,5.94465303 31.0301755,6.10727946 30.7614344,6.4325323 C30.4926932,6.75778515 30.3284003,7.25184393 30.2687796,7.91418111 L31.7571289,7.91418111 L33.099191,7.91418111 Z M35.3203961,13.0458059 C34.8426838,13.190346 34.3500291,13.3108463 33.8425812,13.4071561 C33.3348345,13.5033906 32.716812,13.5516962 31.9885138,13.5516962 C31.3794568,13.5516962 30.8090263,13.4672932 30.2777451,13.2987134 C29.7462398,13.1302089 29.2863839,12.85605 28.8984015,12.4766134 C28.5101949,12.0971769 28.2026032,11.606434 27.9758505,11.0040078 C27.7488737,10.4018077 27.63546,9.66094565 27.63546,8.78149692 C27.63546,7.91418111 27.7458105,7.17648414 27.966885,6.56810456 C28.1877354,5.95987571 28.4922639,5.46898205 28.8804704,5.09549893 C29.2684529,4.7222419 29.7252456,4.45117274 30.2509233,4.28236681 C30.7762275,4.11378696 31.3435948,4.029384 31.9526518,4.029384 C32.5975708,4.029384 33.1677772,4.13503842 33.6634952,4.34559367 C34.1589143,4.55645036 34.5681151,4.88486832 34.8905746,5.33032003 C35.2129594,5.77614854 35.4397121,6.34534103 35.5712809,7.03782213 C35.7025509,7.73068002 35.7204819,8.55285532 35.6249993,9.50427265 L30.2687796,9.50427265 C30.340429,10.8896116 31.1465777,11.5821681 32.6871512,11.5821681 C33.2004266,11.5821681 33.6545297,11.5251207 34.0485638,11.4105739 C34.4426727,11.2961777 34.8068218,11.1786918 35.14131,11.0581915 C35.14131,11.0581915 35.3515512,11.4507406 35.3964535,12.1122489 C35.4413557,12.7737571 35.3203961,13.0458059 35.3203961,13.0458059 L35.3203961,13.0458059 Z" id="E"></path>
                            <path d="M21.4548991,6.1253432 L20.021837,6.1253432 C20.021837,6.1253432 19.9238888,5.72262049 19.9238888,5.17136363 C19.9238888,4.62018214 20.021837,4.21007417 20.021837,4.21007417 L21.4728301,4.21007417 L21.4728301,1.91227885 C21.4728301,1.91227885 21.7858011,1.7860512 22.7749957,1.7860512 C23.7641902,1.7860512 24.0345003,1.89728225 24.0345003,1.89728225 L24.0345003,4.21007417 L25.9153896,4.21007417 C25.9153896,4.21007417 26.0057171,4.52688672 26.0057171,5.20693345 C26.0057171,5.88698019 25.9153896,6.1253432 25.9153896,6.1253432 L24.0345003,6.1253432 L24.0345003,10.5884513 C24.0345003,10.8656246 24.1329715,11.0914779 24.3299886,11.2660112 C24.5271551,11.4406952 24.8286204,11.5279618 25.2346833,11.5279618 C25.4855681,11.5279618 25.7480334,11.4918645 26.0228263,11.4195944 L26.201987,13.3528745 C25.9511769,13.4130869 25.7032806,13.4523494 25.4585221,13.4703604 C25.213689,13.4884467 24.9719191,13.4974899 24.7331377,13.4974899 C24.2790346,13.4974899 23.8522764,13.4432308 23.4522652,13.3348635 C23.0520299,13.2264207 22.7058118,13.0637943 22.4133121,12.8469842 C22.1205134,12.6301741 21.8876343,12.3653598 21.7146747,12.0520138 C21.5414162,11.7388185 21.4548991,11.3715149 21.4548991,10.9498015 L21.4548991,6.1253432 Z" id="T"></path>
                            <path d="M14.6653932,6.1253432 L13.2323312,6.1253432 C13.2323312,6.1253432 13.1121187,5.96708764 13.1121187,5.19156006 C13.1121187,4.41595711 13.2323312,4.21007417 13.2323312,4.21007417 L14.6653932,4.21007417 L14.6653932,3.1078619 C14.6653932,2.6863746 14.7519104,2.31281613 14.9251689,1.98763864 C15.0981285,1.66231043 15.3310076,1.38852832 15.6238062,1.16546334 C15.916306,0.942775166 16.2625241,0.774119959 16.6627594,0.65957308 C17.0627706,0.545176921 17.4896035,0.487828122 17.9435572,0.487828122 C18.1823386,0.487828122 18.4241832,0.496871296 18.669091,0.515033005 C18.9137748,0.533043995 19.1617458,0.572231085 19.4125559,0.632443556 C19.4125559,0.632443556 19.548234,0.872916642 19.4735961,1.65010214 C19.3989583,2.42721228 19.2333952,2.56579894 19.2333952,2.56579894 C18.9585276,2.4935289 18.6959876,2.4573562 18.4451774,2.4573562 C18.0390399,2.4573562 17.7375746,2.54492427 17.5405575,2.71938219 C17.3434657,2.89414154 17.2449945,3.11999482 17.2449945,3.39701741 L17.2449945,4.21007417 L19.1258838,4.21007417 C19.1258838,4.21007417 19.2104584,4.37533818 19.2104584,5.17505626 C19.2104584,5.9748497 19.1258838,6.1253432 19.1258838,6.1253432 L17.2449945,6.1253432 L17.2449945,13.3709608 C17.2449945,13.3709608 17.0229487,13.4974899 15.9214612,13.4974899 C14.8200483,13.4974899 14.6653932,13.3709608 14.6653932,13.3709608 L14.6653932,6.1253432 Z" id="F"></path>
                            <path d="M8.86098029,4.21006663 C8.86098029,4.21006663 9.27675581,4.29477103 10.1597091,4.29477103 C11.0426624,4.29477103 11.4584379,4.21006663 11.4584379,4.21006663 L11.4584379,13.3710286 C11.4584379,13.3710286 11.3326966,13.4974824 10.1597091,13.4974824 C8.98672157,13.4974824 8.86098029,13.3710286 8.86098029,13.3710286 L8.86098029,4.21006663 Z M8.80726195,0.686619708 C8.80726195,0.686619708 9.11716973,0.577272655 10.1597091,0.577272655 C11.2023232,0.577272655 11.5122309,0.686619708 11.5122309,0.686619708 L11.5122309,2.8367852 C11.5122309,2.8367852 11.1200646,2.93181389 10.1597091,2.93181389 C9.19935357,2.93181389 8.80726195,2.8367852 8.80726195,2.8367852 L8.80726195,0.686619708 Z" id="I"></path>
                            <path d="M0.405286796,11.1304389 C0.835182987,11.274979 1.23825736,11.3865115 1.61450992,11.4647349 C1.99068777,11.5432598 2.32203806,11.5821455 2.60871024,11.5821455 C3.14611783,11.5821455 3.54919221,11.5070872 3.81785865,11.3562922 C4.08652509,11.2057987 4.22093303,11.0160428 4.22093303,10.7870997 C4.22093303,10.5702896 4.12238713,10.392742 3.92537006,10.2540799 C3.72827827,10.1157947 3.47746813,9.98617589 3.17293965,9.86567559 C2.86841117,9.74532601 2.54288845,9.61570717 2.19667035,9.47719588 C1.8501534,9.33883531 1.52485482,9.16091085 1.22040106,8.94410074 C0.915797862,8.72729062 0.66506244,8.45938657 0.467970651,8.14001179 C0.270953575,7.8210138 0.17240768,7.41444774 0.17240768,6.92038897 C0.17240768,6.49890167 0.249959339,6.11042196 0.405286796,5.75494984 C0.560390114,5.39977915 0.799395661,5.09547632 1.12185516,4.84249351 C1.44431466,4.5895107 1.84731432,4.39071158 2.33100357,4.24617151 C2.81469282,4.10163143 3.38482453,4.02936139 4.04177226,4.02936139 C4.5313638,4.02936139 4.9702255,4.06267042 5.35843207,4.12876095 C5.7463398,4.19515293 6.07193722,4.25837979 6.33470137,4.31844154 C6.33470137,4.31844154 6.50922996,4.52281729 6.42540245,5.33323646 C6.34164964,6.14365563 6.15561532,6.30605597 6.15561532,6.30605597 C5.89277645,6.22187909 5.61506979,6.14960905 5.32257004,6.0891705 C5.02984614,6.02910875 4.71635215,5.99888947 4.38216278,5.99888947 C3.84475518,5.99888947 3.44168081,6.06829584 3.17293965,6.20665641 C2.90427321,6.34531842 2.76986528,6.52286608 2.76986528,6.7396762 C2.76986528,6.92038897 2.86841117,7.06809415 3.06542825,7.18241495 C3.26252004,7.29703719 3.51333017,7.40826824 3.81785865,7.51671098 C4.12238713,7.62507835 4.447611,7.74874377 4.79412795,7.88710434 C5.14034605,8.02576635 5.46586877,8.20640376 5.77047196,8.4291673 C6.07500044,8.65215691 6.32581058,8.93814731 6.52282765,9.28743993 C6.71991944,9.63695863 6.81839062,10.0765323 6.81839062,10.6064623 C6.81839062,11.0160428 6.73777575,11.4015081 6.576546,11.7628583 C6.41531625,12.1242838 6.1763107,12.4376298 5.85997763,12.7024441 C5.54342043,12.9675599 5.14624834,13.1753268 4.66876024,13.3258203 C4.19097328,13.4763138 3.63563467,13.5516736 3.0028191,13.5516736 C2.56081947,13.5516736 2.09199803,13.5124111 1.5965789,13.4341877 C1.10086093,13.3560396 0.644068205,13.2507619 0.226200739,13.1180534 C0.226200739,13.1180534 0.0900744158,12.7711722 0.0900744158,12.1530713 C0.0900744158,11.5350456 0.405286796,11.1304389 0.405286796,11.1304389" id="S"></path>
                        </g>
                        <g id="Logo-Circle">
                            <circle id="Logo-BG" fill="#FFFFFF" cx="15" cy="15" r="15"></circle>
                            <path d="M12.6252763,16.8429779 C12.9666108,16.9568211 13.2866489,17.0446667 13.5853907,17.1062774 C13.8840732,17.1681255 14.147163,17.1987528 14.3747786,17.1987528 C14.8014763,17.1987528 15.1215145,17.139635 15.3348337,17.0208653 C15.5481529,16.9023331 15.6548718,16.7528767 15.6548718,16.5725558 C15.6548718,16.4017909 15.5766271,16.2619502 15.420197,16.1527367 C15.2637075,16.0438199 15.0645661,15.9417291 14.8227727,15.8468201 C14.5809793,15.7520299 14.3225166,15.6499391 14.0476219,15.5408443 C13.77249,15.4318682 13.5142053,15.2917306 13.2724712,15.1209658 C13.0306184,14.950201 12.8315363,14.7391934 12.6750469,14.4876462 C12.5186167,14.2363958 12.440372,13.9161747 12.440372,13.5270422 C12.440372,13.1950688 12.5019475,12.8890929 12.6252763,12.6091146 C12.7484273,12.3293737 12.9381959,12.0896975 13.1942264,11.8904422 C13.4502569,11.6911869 13.7702358,11.534608 14.1542815,11.4207648 C14.5383273,11.3069216 14.9910077,11.25 15.5126195,11.25 C15.9013516,11.25 16.2498046,11.276235 16.5580378,11.3282895 C16.8660337,11.3805814 17.1245557,11.4303803 17.3331886,11.4776864 C17.3331886,11.4776864 17.471763,11.6386576 17.4052046,12.2769631 C17.3387054,12.9152685 17.1909955,13.0431789 17.1909955,13.0431789 C16.9823034,12.9768792 16.7618063,12.9199576 16.5295636,12.8723547 C16.297143,12.8250487 16.048231,12.8012472 15.7828871,12.8012472 C15.3561893,12.8012472 15.0361512,12.8559134 14.8227727,12.9648894 C14.6094535,13.0741029 14.5027345,13.2139437 14.5027345,13.3847085 C14.5027345,13.5270422 14.5809793,13.6433783 14.7374094,13.7334201 C14.8938988,13.8236993 15.0930403,13.9113076 15.3348337,13.9967196 C15.5766271,14.0820724 15.8348525,14.1794742 16.1099844,14.2884503 C16.3848791,14.3976638 16.6433418,14.5399381 16.8851945,14.715392 C17.1269879,14.8910239 17.3261293,15.1162768 17.4825595,15.391388 C17.6390489,15.6666772 17.7172343,16.0128959 17.7172343,16.4302814 C17.7172343,16.7528767 17.6532267,17.0564784 17.5252115,17.3410864 C17.3971962,17.6257538 17.2074275,17.8725526 16.9562614,18.0811266 C16.7049172,18.2899381 16.3895655,18.4535803 16.0104434,18.5721126 C15.631084,18.6906448 15.1901492,18.75 14.6876982,18.75 C14.3367537,18.75 13.9645128,18.719076 13.5711536,18.6574653 C13.1775572,18.595914 12.8148671,18.5129948 12.4830833,18.4084704 C12.4830833,18.4084704 12.375,18.1352586 12.375,17.6484275 C12.375,17.1616558 12.6252763,16.8429779 12.6252763,16.8429779" fill="#4271D6"></path>
                        </g>
                    </g>
                </g>
            </g>
        </g>
    </g>
</svg>
